<svg width="40" height="40" viewBox="0 0 40 40" fill="none" xmlns="http://www.w3.org/2000/svg">
<path d="M28.3333 11.6666V8.33331C28.3333 7.41331 29.08 6.66665 30 6.66665H33.3333C34.2533 6.66665 35 7.41331 35 8.33331V11.6666" stroke="#13F845" stroke-width="2" stroke-linecap="round" stroke-linejoin="round"/>
<path d="M28.3333 19.1666V24.1666" stroke="#13F845" stroke-width="2" stroke-linecap="round" stroke-linejoin="round"/>
<path d="M30.8333 21.6666H25.8333" stroke="#13F845" stroke-width="2" stroke-linecap="round" stroke-linejoin="round"/>
<path d="M14.1667 21.6666H9.16666" stroke="#13F845" stroke-width="2" stroke-linecap="round" stroke-linejoin="round"/>
<path d="M5 11.6666V8.33331C5 7.41331 5.74667 6.66665 6.66667 6.66665H10C10.92 6.66665 11.6667 7.41331 11.6667 8.33331V11.6666" stroke="#13F845" stroke-width="2" stroke-linecap="round" stroke-linejoin="round"/>
<path fill-rule="evenodd" clip-rule="evenodd" d="M28.3333 11.6666H35C35.92 11.6666 36.6667 12.4133 36.6667 13.3333V30C36.6667 31.8416 35.175 33.3333 33.3333 33.3333H6.66668C4.82501 33.3333 3.33334 31.8416 3.33334 30V13.3333C3.33334 12.4133 4.08001 11.6666 5.00001 11.6666H11.6667L14.5117 8.82165C14.825 8.50831 15.2483 8.33331 15.69 8.33331H24.31C24.7517 8.33331 25.1767 8.50831 25.4883 8.82165L28.3333 11.6666V11.6666Z" stroke="#13F845" stroke-width="2" stroke-linecap="round" stroke-linejoin="round"/>
</svg>
