<svg width="24" height="24" viewBox="0 0 24 24" fill="none" xmlns="http://www.w3.org/2000/svg">
<path d="M17.999 11.75C17.861 11.75 17.749 11.862 17.75 12C17.75 12.138 17.862 12.25 18 12.25C18.138 12.25 18.25 12.138 18.25 12C18.25 11.862 18.138 11.75 17.999 11.75" stroke="current" stroke-width="1.5" stroke-linecap="round" stroke-linejoin="round"/>
<path d="M5.999 11.75C5.861 11.75 5.749 11.862 5.75 12C5.75 12.138 5.862 12.25 6 12.25C6.138 12.25 6.25 12.138 6.25 12C6.25 11.862 6.138 11.75 5.999 11.75" stroke="current" stroke-width="1.5" stroke-linecap="round" stroke-linejoin="round"/>
<path d="M6 17L17 7.5L11 3V21L17 16.5L6 7" stroke="current" stroke-width="1.5" stroke-linecap="round" stroke-linejoin="round"/>
</svg>
